<svg width="40" height="40" viewBox="0 0 40 40" fill="none" xmlns="http://www.w3.org/2000/svg">
<g id="logo">
<path id="Vector" d="M33.9314 29.5863C33.4202 30.7884 32.7886 31.9348 32.0464 33.0075C31.055 34.436 30.2409 35.4231 29.6169 35.9725C28.6476 36.8702 27.6064 37.3321 26.4931 37.3582C25.6956 37.3582 24.7319 37.1291 23.6094 36.6635C22.4833 36.1997 21.4494 35.9725 20.5023 35.9725C19.5109 35.9725 18.4475 36.1997 17.3084 36.6635C16.1712 37.1291 15.2518 37.3731 14.5484 37.3954C13.4832 37.442 12.4179 36.9689 11.3564 35.9725C10.6788 35.3765 9.83143 34.3522 8.81419 32.9032C7.72495 31.3593 6.82956 29.562 6.12801 27.519C5.37662 25.3083 5 23.1702 5 21.0992C5 18.7283 5.5077 16.6815 6.52494 14.9681C7.29433 13.6224 8.39428 12.4993 9.71882 11.707C11.0249 10.9167 12.5159 10.4911 14.0389 10.474C14.8881 10.474 16.0013 10.7385 17.3804 11.26C18.7595 11.7815 19.6457 12.0459 20.0315 12.0459C20.3232 12.0459 21.3036 11.7349 22.9725 11.1184C24.5473 10.5467 25.8765 10.3101 26.9658 10.4033C29.9196 10.6435 32.1369 11.8168 33.612 13.9326C30.972 15.5473 29.6667 17.8064 29.6926 20.7062C29.7147 22.9653 30.5289 24.8445 32.124 26.3363C32.8292 27.0171 33.652 27.5618 34.5517 27.9436C34.356 28.5154 34.1492 29.0611 33.9314 29.5863ZM27.1615 2.70958C27.1615 4.47889 26.519 6.13272 25.2433 7.66177C23.6999 9.4795 21.8353 10.5318 19.8137 10.366C19.7873 10.1435 19.7743 9.91962 19.7749 9.69554C19.7749 7.99515 20.506 6.17742 21.8113 4.68934C22.4611 3.93692 23.2882 3.30929 24.2907 2.81016C25.2913 2.31847 26.2365 2.04656 27.1264 2C27.1504 2.23839 27.1615 2.47492 27.1615 2.70958Z" fill="#0071E4"/>
</g>
</svg>
