<svg width="32" height="32" viewBox="0 0 32 32" fill="none" xmlns="http://www.w3.org/2000/svg">
<path d="M8.66667 2.6665H23.3333C23.5403 2.6665 23.7445 2.7147 23.9296 2.80727C24.1148 2.89984 24.2758 3.03424 24.4 3.19984L28 7.99984V27.9998C28 28.3535 27.8595 28.6926 27.6095 28.9426C27.3594 29.1927 27.0203 29.3332 26.6667 29.3332H5.33333C4.97971 29.3332 4.64057 29.1927 4.39052 28.9426C4.14048 28.6926 4 28.3535 4 27.9998V7.99984L7.6 3.19984C7.7242 3.03424 7.88524 2.89984 8.07038 2.80727C8.25552 2.7147 8.45967 2.6665 8.66667 2.6665ZM24.6667 7.99984L22.6667 5.33317H9.33333L7.33333 7.99984H24.6667ZM12 13.3332H9.33333V15.9998C9.33333 17.7679 10.0357 19.4636 11.286 20.7139C12.5362 21.9641 14.2319 22.6665 16 22.6665C17.7681 22.6665 19.4638 21.9641 20.714 20.7139C21.9643 19.4636 22.6667 17.7679 22.6667 15.9998V13.3332H20V15.9998C20 17.0607 19.5786 18.0781 18.8284 18.8283C18.0783 19.5784 17.0609 19.9998 16 19.9998C14.9391 19.9998 13.9217 19.5784 13.1716 18.8283C12.4214 18.0781 12 17.0607 12 15.9998V13.3332Z" fill="#706E6E"/>
</svg>
