<svg width="36" height="32" viewBox="0 0 36 32" fill="none" xmlns="http://www.w3.org/2000/svg">
<path fill-rule="evenodd" clip-rule="evenodd" d="M5.84675 21.7333C7.79803 23.1039 10.1239 23.8406 12.5084 23.8433C13.2432 25.8442 14.5121 27.6056 16.1773 28.9361C17.8426 30.2667 19.8405 31.1156 21.9542 31.3907C24.0679 31.6658 26.2166 31.3566 28.167 30.4966C30.1173 29.6366 31.7948 28.2588 33.0173 26.5126C34.2397 24.7665 34.9605 22.7188 35.1012 20.5919C35.2419 18.465 34.7973 16.3403 33.8156 14.4483C32.8338 12.5563 31.3525 10.9694 29.5325 9.85991C27.7125 8.75045 25.6233 8.1608 23.4917 8.155C22.8604 6.43638 21.8334 4.89048 20.4938 3.64235C19.1542 2.39422 17.5397 1.47889 15.7808 0.970399C14.0219 0.461908 12.168 0.374531 10.3691 0.715335C8.57016 1.05614 6.87669 1.81556 5.42567 2.93216C3.97464 4.04877 2.80679 5.49122 2.01657 7.14283C1.22635 8.79445 0.835953 10.6089 0.876949 12.4393C0.917945 14.2698 1.38919 16.0649 2.25256 17.6795C3.11593 19.2941 4.34719 20.6828 5.84675 21.7333ZM7.75842 19C8.95561 19.8412 10.354 20.3506 11.8117 20.4767C11.6614 17.8618 12.399 15.2729 13.9051 13.13C15.404 10.9823 17.5848 9.40416 20.0934 8.65167C19.5528 7.49376 18.753 6.47571 17.7561 5.67623C16.7592 4.87675 15.5917 4.31727 14.344 4.04103C13.0963 3.76479 11.8018 3.7792 10.5606 4.08315C9.31934 4.38709 8.16464 4.97243 7.18575 5.79391C6.20685 6.61539 5.43 7.65099 4.91526 8.82064C4.40051 9.99029 4.16166 11.2627 4.21718 12.5394C4.2727 13.8161 4.62109 15.0629 5.23543 16.1835C5.84976 17.304 6.71358 18.2683 7.76008 19.0017L7.75842 19ZM28.2417 12.995C27.0443 12.1545 25.646 11.6456 24.1884 11.52C24.3388 14.1349 23.6011 16.7238 22.0951 18.8667C20.5961 21.0144 18.4154 22.5925 15.9067 23.345C16.4474 24.5029 17.2471 25.521 18.2441 26.3204C19.241 27.1199 20.4084 27.6794 21.6561 27.9556C22.9038 28.2319 24.1983 28.2175 25.4396 27.9135C26.6808 27.6096 27.8355 27.0242 28.8144 26.2028C29.7933 25.3813 30.5702 24.3457 31.0849 23.176C31.5997 22.0064 31.8385 20.734 31.783 19.4573C31.7275 18.1806 31.3791 16.9338 30.7647 15.8132C30.1504 14.6927 29.2866 13.7284 28.2401 12.995H28.2417Z" fill="#706E6E"/>
</svg>
