<svg width="457" height="106" viewBox="0 0 457 106" fill="none" xmlns="http://www.w3.org/2000/svg">
<path d="M4.29688 84H16.8438V37.9375H4.29688V84ZM10.5703 32.8672C14.3516 32.8672 17.2734 29.9883 17.2734 26.3789C17.2734 22.7266 14.3516 19.8906 10.5703 19.8906C6.78906 19.8906 3.86719 22.7266 3.86719 26.3789C3.86719 29.9883 6.78906 32.8672 10.5703 32.8672ZM26.2969 21.9961V84H39.2734V64.4492H50.875C63.9375 64.4492 73.0039 55.9414 73.0039 43.2227C73.0039 30.4609 64.2383 21.9961 51.5195 21.9961H26.2969ZM39.2734 32.2656H48.082C55.5156 32.2656 59.8125 36.2188 59.8125 43.2656C59.8125 50.3555 55.4727 54.3086 48.0391 54.3086H39.2734V32.2656ZM79.9219 84H92.4688V57.7031C92.4688 51.6445 95.9492 47.4766 101.879 47.4766C107.594 47.4766 110.516 51.0859 110.516 57.0156V84H123.062V54.3516C123.062 43.6953 117.219 37.0781 106.992 37.0781C99.9883 37.0781 94.9609 40.3438 92.5117 46.1445H92.2539V21.9961H79.9219V84Z" fill="#1E3240"/>
<path d="M245.082 84H257.629V57.5742C257.629 51.6016 261.195 47.4766 266.824 47.4766C272.453 47.4766 275.289 50.9141 275.289 56.9297V84H287.836V54.3086C287.836 43.5234 282.078 37.0781 271.852 37.0781C264.762 37.0781 259.906 40.4297 257.457 46.1445H257.199V37.9375H245.082V84ZM316.453 46.2305C322.039 46.2305 325.863 50.2695 326.121 56.1562H306.57C307 50.3984 310.953 46.2305 316.453 46.2305ZM326.293 69.9062C325.133 73.4297 321.609 75.707 317.012 75.707C310.609 75.707 306.441 71.1953 306.441 64.6211V63.8477H338.195V60.0234C338.195 46.0156 329.73 36.9492 316.324 36.9492C302.703 36.9492 294.109 46.4883 294.109 61.1836C294.109 75.9219 302.617 84.9883 316.797 84.9883C328.184 84.9883 336.434 78.9297 337.809 69.9062H326.293Z" fill="#1E3240"/>
<path d="M376.895 85H389.742V22.9961H376.852L360.824 34.125V45.8125L376.637 34.8984H376.895V85ZM433.227 85H445.559V73.957H453.637V63.5586H445.559V22.9961H427.254C414.535 41.7305 407.789 52.6016 402.375 62.9141V73.957H433.227V85ZM413.762 63.6016C418.789 53.8906 424.203 45.4258 433.227 32.1914H433.484V63.9453H413.762V63.6016Z" fill="#1E3240"/>
<rect x="138.5" y="44.5" width="90" height="34" rx="17" stroke="#1E3240" stroke-width="11"/>
</svg>
