<svg width="56" height="56" viewBox="0 0 56 56" fill="none" xmlns="http://www.w3.org/2000/svg">
<path d="M19.8333 6.99999C17.9003 6.99999 16.3333 8.56699 16.3333 10.5V45.5C16.3333 47.433 17.9003 49 19.8333 49H36.1932C38.1262 49 39.6932 47.433 39.6932 45.5V10.5C39.6932 8.56699 38.1262 6.99999 36.1932 6.99999H36.1667C35.5223 6.99999 35 7.52232 35 8.16666C35 10.0997 33.433 11.6667 31.5 11.6667H24.5C22.567 11.6667 21 10.0997 21 8.16666C21 7.52232 20.4777 6.99999 19.8333 6.99999ZM23.1342 6.99999C23.2632 7.3649 23.3333 7.75758 23.3333 8.16666C23.3333 8.81099 23.8557 9.33332 24.5 9.33332H31.5C32.1443 9.33332 32.6667 8.81099 32.6667 8.16666C32.6667 7.75758 32.7368 7.3649 32.8658 6.99999H23.1342ZM14 10.5C14 7.27833 16.6117 4.66666 19.8333 4.66666H36.1932C39.4148 4.66666 42.0265 7.27833 42.0265 10.5V45.5C42.0265 48.7217 39.4148 51.3333 36.1932 51.3333H19.8333C16.6117 51.3333 14 48.7217 14 45.5V10.5Z" fill="#CCCCCC"/>
<rect x="18.5" y="8.5" width="19" height="38" rx="2.5" stroke="#CCCCCC" stroke-dasharray="2 2"/>
</svg>
