<svg width="24" height="24" viewBox="0 0 24 24" fill="none" xmlns="http://www.w3.org/2000/svg">
<path fill-rule="evenodd" clip-rule="evenodd" d="M4.70824 15.44C5.87901 16.2624 7.27454 16.7044 8.70524 16.706C9.14611 17.9066 9.90745 18.9634 10.9066 19.7617C11.9057 20.5601 13.1045 21.0694 14.3727 21.2345C15.641 21.3995 16.9302 21.214 18.1004 20.698C19.2706 20.182 20.2771 19.3553 21.0106 18.3076C21.744 17.2599 22.1765 16.0313 22.2609 14.7552C22.3454 13.4791 22.0786 12.2042 21.4895 11.069C20.9005 9.9338 20.0117 8.98167 18.9197 8.31599C17.8277 7.65031 16.5742 7.29652 15.2952 7.29304C14.9164 6.26187 14.3002 5.33433 13.4965 4.58545C12.6927 3.83657 11.724 3.28738 10.6687 2.98228C9.61334 2.67719 8.501 2.62476 7.42165 2.82924C6.34229 3.03373 5.32621 3.48938 4.4556 4.15934C3.58498 4.8293 2.88427 5.69477 2.41014 6.68574C1.93601 7.67671 1.70177 8.76537 1.72636 9.86365C1.75096 10.9619 2.03371 12.039 2.55173 13.0077C3.06975 13.9765 3.80851 14.8097 4.70824 15.44ZM5.85524 13.8C6.57356 14.3047 7.41261 14.6104 8.28724 14.686C8.19701 13.1171 8.63962 11.5638 9.54324 10.278C10.4426 8.98942 11.7511 8.04254 13.2562 7.59104C12.9319 6.8963 12.452 6.28547 11.8539 5.80578C11.2557 5.3261 10.5552 4.9904 9.80661 4.82466C9.05799 4.65891 8.28128 4.66756 7.53654 4.84993C6.7918 5.0323 6.09898 5.3835 5.51164 5.87639C4.92431 6.36927 4.4582 6.99063 4.14935 7.69243C3.8405 8.39422 3.69719 9.15764 3.7305 9.92366C3.76381 10.6897 3.97285 11.4378 4.34145 12.1101C4.71005 12.7824 5.22834 13.361 5.85624 13.801L5.85524 13.8ZM18.1452 10.197C17.4268 9.69274 16.5878 9.38742 15.7132 9.31204C15.8035 10.881 15.3609 12.4343 14.4572 13.72C13.5579 15.0087 12.2494 15.9555 10.7442 16.407C11.0686 17.1018 11.5485 17.7126 12.1466 18.1923C12.7448 18.672 13.4453 19.0077 14.1939 19.1734C14.9425 19.3392 15.7192 19.3305 16.4639 19.1482C17.2087 18.9658 17.9015 18.6146 18.4888 18.1217C19.0762 17.6288 19.5423 17.0075 19.8511 16.3057C20.16 15.6039 20.3033 14.8404 20.27 14.0744C20.2367 13.3084 20.0276 12.5603 19.659 11.888C19.2904 11.2156 18.7721 10.6371 18.1442 10.197H18.1452Z" fill="#585656"/>
</svg>
